<mxfile host="app.diagrams.net" modified="2024-06-07T05:26:43.422Z" agent="Mozilla/5.0 (Macintosh; Intel Mac OS X 10_15_7) AppleWebKit/537.36 (KHTML, like Gecko) Chrome/125.0.0.0 Safari/537.36" etag="4W3yQxH6mhuL_UAZSliS" version="24.4.13" type="github">
  <diagram name="Page-1" id="rc1M6ddWAkjHDZRwf7xA">
    <mxGraphModel dx="2913" dy="1197" grid="0" gridSize="10" guides="1" tooltips="1" connect="1" arrows="1" fold="1" page="1" pageScale="1" pageWidth="2336" pageHeight="1654" math="0" shadow="0">
      <root>
        <mxCell id="0" />
        <mxCell id="1" parent="0" />
        <mxCell id="mFdObNnRLEmpu8kLYwoK-1" value="Requirements.&lt;div&gt;Design a customer rating system that a companyu like doordash can use&lt;/div&gt;&lt;div&gt;&lt;br&gt;&lt;div&gt;&lt;br&gt;&lt;/div&gt;&lt;/div&gt;" style="text;html=1;align=left;verticalAlign=middle;resizable=0;points=[];autosize=1;strokeColor=none;fillColor=none;" vertex="1" parent="1">
          <mxGeometry x="45" y="51" width="405" height="70" as="geometry" />
        </mxCell>
        <mxCell id="mFdObNnRLEmpu8kLYwoK-2" value="&lt;font face=&quot;Comic Sans MS&quot;&gt;Functional Requirements.&amp;nbsp;&lt;/font&gt;&lt;div&gt;&lt;font face=&quot;tBs83cekSf8fiDyiyj2G&quot;&gt;&lt;br&gt;&lt;/font&gt;&lt;/div&gt;&lt;div&gt;&lt;font face=&quot;tBs83cekSf8fiDyiyj2G&quot;&gt;- Users must be able to submit review, but only for dishes that they have purchased.&amp;nbsp;&lt;/font&gt;&lt;/div&gt;&lt;div&gt;&lt;font face=&quot;tBs83cekSf8fiDyiyj2G&quot;&gt;- They should be able to go back to previous purchases and still submit them&lt;/font&gt;&lt;/div&gt;&lt;div&gt;&lt;font face=&quot;tBs83cekSf8fiDyiyj2G&quot;&gt;- They should be able to edit/update their reviews&lt;/font&gt;&lt;/div&gt;&lt;div&gt;&lt;font face=&quot;tBs83cekSf8fiDyiyj2G&quot;&gt;- Each dish is rated separately&lt;/font&gt;&lt;/div&gt;&lt;div&gt;&lt;font face=&quot;tBs83cekSf8fiDyiyj2G&quot;&gt;- When they reviews, can they upvote/downvote reviews&lt;/font&gt;&lt;/div&gt;&lt;div&gt;&lt;font face=&quot;tBs83cekSf8fiDyiyj2G&quot;&gt;- They should be able to view the rating summary&lt;/font&gt;&lt;/div&gt;&lt;div&gt;&lt;font face=&quot;tBs83cekSf8fiDyiyj2G&quot;&gt;- Different dimensions of rating - but we can call it is out of scope&lt;/font&gt;&lt;/div&gt;&lt;div&gt;&lt;font face=&quot;tBs83cekSf8fiDyiyj2G&quot;&gt;- Store owners response to the rating maybe not&lt;/font&gt;&lt;/div&gt;&lt;div&gt;&lt;font face=&quot;tBs83cekSf8fiDyiyj2G&quot;&gt;- Review moderation / take downs&lt;/font&gt;&lt;/div&gt;&lt;div&gt;&lt;font face=&quot;tBs83cekSf8fiDyiyj2G&quot;&gt;&lt;br&gt;&lt;/font&gt;&lt;/div&gt;&lt;div&gt;&lt;font face=&quot;tBs83cekSf8fiDyiyj2G&quot;&gt;&lt;br&gt;&lt;/font&gt;&lt;/div&gt;&lt;div&gt;&lt;font face=&quot;tBs83cekSf8fiDyiyj2G&quot;&gt;NFRs&lt;/font&gt;&lt;/div&gt;&lt;div&gt;&lt;font face=&quot;tBs83cekSf8fiDyiyj2G&quot;&gt;- &lt;/font&gt;&lt;font face=&quot;Comic Sans MS&quot;&gt;High availability, ratings can be eventually consistent&lt;/font&gt;&lt;/div&gt;&lt;div&gt;&lt;font face=&quot;Comic Sans MS&quot;&gt;- Peak/Burst scenarios&lt;/font&gt;&lt;/div&gt;&lt;div&gt;&lt;font face=&quot;Comic Sans MS&quot;&gt;- More reads than writes - 20:1&lt;/font&gt;&lt;/div&gt;&lt;div&gt;&lt;font face=&quot;Comic Sans MS&quot;&gt;- 25M reviews per year 60k/day less than 1/s average&lt;/font&gt;&lt;/div&gt;&lt;div&gt;&lt;font face=&quot;Comic Sans MS&quot;&gt;- Store upvote&lt;/font&gt;&lt;/div&gt;&lt;div&gt;&lt;font face=&quot;Comic Sans MS&quot;&gt;- Review size 1000 char - 2KB each&lt;/font&gt;&lt;/div&gt;" style="rounded=1;whiteSpace=wrap;html=1;align=left;" vertex="1" parent="1">
          <mxGeometry x="33" y="131" width="399" height="606" as="geometry" />
        </mxCell>
        <mxCell id="mFdObNnRLEmpu8kLYwoK-3" value="&lt;font face=&quot;Comic Sans MS&quot; style=&quot;font-size: 14px;&quot;&gt;Core entities&lt;/font&gt;&lt;div&gt;&lt;font face=&quot;Comic Sans MS&quot;&gt;&lt;span style=&quot;font-size: 14px;&quot;&gt;- Review&lt;/span&gt;&lt;/font&gt;&lt;/div&gt;&lt;div&gt;&lt;font face=&quot;Comic Sans MS&quot;&gt;&lt;span style=&quot;font-size: 14px;&quot;&gt;&amp;nbsp; - Id&lt;/span&gt;&lt;/font&gt;&lt;/div&gt;&lt;div&gt;&lt;font face=&quot;Comic Sans MS&quot;&gt;&lt;span style=&quot;font-size: 14px;&quot;&gt;&amp;nbsp; - per dish per user&lt;/span&gt;&lt;/font&gt;&lt;/div&gt;&lt;div&gt;&lt;font face=&quot;Comic Sans MS&quot;&gt;&lt;span style=&quot;font-size: 14px;&quot;&gt;&amp;nbsp; - upvote/downvote counts&lt;/span&gt;&lt;/font&gt;&lt;/div&gt;&lt;div&gt;&lt;font face=&quot;Comic Sans MS&quot;&gt;&lt;span style=&quot;font-size: 14px;&quot;&gt;&amp;nbsp; - replies&lt;/span&gt;&lt;/font&gt;&lt;/div&gt;&lt;div&gt;&lt;font face=&quot;Comic Sans MS&quot;&gt;&lt;span style=&quot;font-size: 14px;&quot;&gt;- ReviewSummary&lt;/span&gt;&lt;/font&gt;&lt;/div&gt;&lt;div&gt;&lt;font face=&quot;Comic Sans MS&quot;&gt;&lt;span style=&quot;font-size: 14px;&quot;&gt;&amp;nbsp; - ratings&lt;/span&gt;&lt;/font&gt;&lt;/div&gt;&lt;div&gt;&lt;font face=&quot;Comic Sans MS&quot;&gt;&lt;span style=&quot;font-size: 14px;&quot;&gt;&amp;nbsp; - breakdowns&lt;/span&gt;&lt;/font&gt;&lt;/div&gt;&lt;div&gt;&lt;font face=&quot;Comic Sans MS&quot;&gt;&lt;span style=&quot;font-size: 14px;&quot;&gt;- User&lt;/span&gt;&lt;/font&gt;&lt;/div&gt;&lt;div&gt;&lt;font face=&quot;Comic Sans MS&quot;&gt;&lt;span style=&quot;font-size: 14px;&quot;&gt;&amp;nbsp; - Id&lt;/span&gt;&lt;/font&gt;&lt;/div&gt;&lt;div&gt;&lt;font face=&quot;Comic Sans MS&quot;&gt;&lt;span style=&quot;font-size: 14px;&quot;&gt;&amp;nbsp; - Misc Metadata&lt;/span&gt;&lt;/font&gt;&lt;/div&gt;&lt;div&gt;&lt;font face=&quot;Comic Sans MS&quot;&gt;&lt;span style=&quot;font-size: 14px;&quot;&gt;- Dish&lt;/span&gt;&lt;/font&gt;&lt;/div&gt;&lt;div&gt;&lt;font face=&quot;Comic Sans MS&quot;&gt;&lt;span style=&quot;font-size: 14px;&quot;&gt;&amp;nbsp; - Id&lt;/span&gt;&lt;/font&gt;&lt;/div&gt;&lt;div&gt;&lt;font face=&quot;Comic Sans MS&quot;&gt;&lt;span style=&quot;font-size: 14px;&quot;&gt;- Upvote&lt;/span&gt;&lt;/font&gt;&lt;/div&gt;&lt;div&gt;&lt;font face=&quot;Comic Sans MS&quot;&gt;&lt;span style=&quot;font-size: 14px;&quot;&gt;&amp;nbsp; - reviewId&lt;/span&gt;&lt;/font&gt;&lt;div&gt;&lt;br&gt;&lt;/div&gt;&lt;div&gt;&lt;br&gt;&lt;/div&gt;&lt;div&gt;&lt;font face=&quot;Comic Sans MS&quot; style=&quot;font-size: 15px;&quot;&gt;APIs&lt;/font&gt;&lt;/div&gt;&lt;/div&gt;&lt;div&gt;&lt;font face=&quot;Comic Sans MS&quot; style=&quot;font-size: 15px;&quot;&gt;&lt;br&gt;&lt;/font&gt;&lt;/div&gt;&lt;div&gt;&lt;font face=&quot;Comic Sans MS&quot; style=&quot;font-size: 15px;&quot;&gt;POST /v1/review&lt;/font&gt;&lt;/div&gt;&lt;div&gt;&lt;font face=&quot;Comic Sans MS&quot; style=&quot;font-size: 15px;&quot;&gt;{ dishId, review details }&lt;/font&gt;&lt;/div&gt;&lt;div&gt;&lt;font face=&quot;Comic Sans MS&quot; style=&quot;font-size: 15px;&quot;&gt;&lt;br&gt;&lt;/font&gt;&lt;/div&gt;&lt;div&gt;&lt;font face=&quot;Comic Sans MS&quot; style=&quot;font-size: 15px;&quot;&gt;GET /v1/reviewSummary/{dishId}&lt;/font&gt;&lt;/div&gt;&lt;div&gt;&lt;font face=&quot;Comic Sans MS&quot; style=&quot;font-size: 15px;&quot;&gt;&lt;br&gt;&lt;/font&gt;&lt;/div&gt;&lt;div&gt;&lt;font face=&quot;Comic Sans MS&quot; style=&quot;font-size: 15px;&quot;&gt;POST /v1/vote/{reviewId}&lt;/font&gt;&lt;/div&gt;&lt;div&gt;&lt;font face=&quot;Comic Sans MS&quot; style=&quot;font-size: 15px;&quot;&gt;{voteType}&lt;/font&gt;&lt;/div&gt;&lt;div&gt;&lt;font face=&quot;Comic Sans MS&quot; style=&quot;font-size: 15px;&quot;&gt;&lt;br&gt;&lt;/font&gt;&lt;/div&gt;&lt;div&gt;&lt;font face=&quot;Comic Sans MS&quot; style=&quot;font-size: 15px;&quot;&gt;GET /v1/reviewReplies ---??&lt;/font&gt;&lt;/div&gt;" style="whiteSpace=wrap;html=1;align=left;" vertex="1" parent="1">
          <mxGeometry x="607" y="147" width="341" height="578" as="geometry" />
        </mxCell>
        <mxCell id="mFdObNnRLEmpu8kLYwoK-5" value="" style="line;strokeWidth=2;direction=south;html=1;" vertex="1" parent="1">
          <mxGeometry x="1284" y="159" width="10" height="569" as="geometry" />
        </mxCell>
        <mxCell id="mFdObNnRLEmpu8kLYwoK-6" value="" style="fontColor=#0066CC;verticalAlign=top;verticalLabelPosition=bottom;labelPosition=center;align=center;html=1;outlineConnect=0;fillColor=#CCCCCC;strokeColor=#6881B3;gradientColor=none;gradientDirection=north;strokeWidth=2;shape=mxgraph.networks.monitor;" vertex="1" parent="1">
          <mxGeometry x="1116" y="365" width="80" height="65" as="geometry" />
        </mxCell>
        <mxCell id="mFdObNnRLEmpu8kLYwoK-14" style="rounded=0;orthogonalLoop=1;jettySize=auto;html=1;entryX=0;entryY=0.5;entryDx=0;entryDy=0;strokeWidth=3;startArrow=classic;startFill=1;spacingTop=2;spacingLeft=2;spacingBottom=2;spacingRight=2;spacing=4;" edge="1" parent="1" source="mFdObNnRLEmpu8kLYwoK-7" target="mFdObNnRLEmpu8kLYwoK-11">
          <mxGeometry relative="1" as="geometry" />
        </mxCell>
        <mxCell id="mFdObNnRLEmpu8kLYwoK-15" value="getReview" style="edgeLabel;html=1;align=center;verticalAlign=middle;resizable=0;points=[];fontSize=19;" vertex="1" connectable="0" parent="mFdObNnRLEmpu8kLYwoK-14">
          <mxGeometry x="0.13" y="-2" relative="1" as="geometry">
            <mxPoint as="offset" />
          </mxGeometry>
        </mxCell>
        <mxCell id="mFdObNnRLEmpu8kLYwoK-7" value="API Gateway" style="rounded=1;whiteSpace=wrap;html=1;" vertex="1" parent="1">
          <mxGeometry x="1470" y="294" width="128" height="370" as="geometry" />
        </mxCell>
        <mxCell id="mFdObNnRLEmpu8kLYwoK-11" value="ReviewService" style="rounded=1;whiteSpace=wrap;html=1;" vertex="1" parent="1">
          <mxGeometry x="1711" y="314" width="120" height="60" as="geometry" />
        </mxCell>
        <mxCell id="mFdObNnRLEmpu8kLYwoK-12" value="ReviewDB" style="shape=cylinder3;whiteSpace=wrap;html=1;boundedLbl=1;backgroundOutline=1;size=15;" vertex="1" parent="1">
          <mxGeometry x="2046" y="283" width="60" height="80" as="geometry" />
        </mxCell>
        <mxCell id="mFdObNnRLEmpu8kLYwoK-13" value="Actor" style="shape=umlActor;verticalLabelPosition=bottom;verticalAlign=top;html=1;outlineConnect=0;" vertex="1" parent="1">
          <mxGeometry x="1143" y="227" width="30" height="60" as="geometry" />
        </mxCell>
        <mxCell id="mFdObNnRLEmpu8kLYwoK-16" value="ReviewTable" style="text;html=1;align=center;verticalAlign=middle;resizable=0;points=[];autosize=1;strokeColor=none;fillColor=none;" vertex="1" parent="1">
          <mxGeometry x="2115" y="274" width="86" height="26" as="geometry" />
        </mxCell>
        <mxCell id="mFdObNnRLEmpu8kLYwoK-17" value="Message Queues" style="shape=step;perimeter=stepPerimeter;whiteSpace=wrap;html=1;fixedSize=1;" vertex="1" parent="1">
          <mxGeometry x="1598" y="38" width="247" height="80" as="geometry" />
        </mxCell>
        <mxCell id="mFdObNnRLEmpu8kLYwoK-18" value="Message Queue - ReviewPosted" style="strokeWidth=2;html=1;shape=mxgraph.flowchart.direct_data;whiteSpace=wrap;" vertex="1" parent="1">
          <mxGeometry x="1519" y="176" width="273" height="60" as="geometry" />
        </mxCell>
        <mxCell id="mFdObNnRLEmpu8kLYwoK-20" value="Processor" style="ellipse;whiteSpace=wrap;html=1;" vertex="1" parent="1">
          <mxGeometry x="1867" y="106" width="80" height="80" as="geometry" />
        </mxCell>
        <mxCell id="mFdObNnRLEmpu8kLYwoK-21" value="Processor" style="ellipse;whiteSpace=wrap;html=1;" vertex="1" parent="1">
          <mxGeometry x="1877" y="205" width="79" height="80" as="geometry" />
        </mxCell>
        <mxCell id="mFdObNnRLEmpu8kLYwoK-22" value="Processor" style="ellipse;whiteSpace=wrap;html=1;" vertex="1" parent="1">
          <mxGeometry x="1885" y="329" width="80" height="80" as="geometry" />
        </mxCell>
        <mxCell id="mFdObNnRLEmpu8kLYwoK-23" style="edgeStyle=orthogonalEdgeStyle;rounded=0;orthogonalLoop=1;jettySize=auto;html=1;entryX=1;entryY=0.5;entryDx=0;entryDy=0;entryPerimeter=0;" edge="1" parent="1" source="mFdObNnRLEmpu8kLYwoK-21" target="mFdObNnRLEmpu8kLYwoK-18">
          <mxGeometry relative="1" as="geometry" />
        </mxCell>
      </root>
    </mxGraphModel>
  </diagram>
</mxfile>
